<svg width="24" height="24" viewBox="0 0 24 24" fill="none" xmlns="http://www.w3.org/2000/svg">
<path d="M16 13H8M5 10H19V15.6C19 17.8498 19 18.9748 18.4271 19.7634C18.242 20.018 18.018 20.242 17.7634 20.4271C16.9748 21 15.8498 21 13.6 21H10.4C8.15016 21 7.02524 21 6.23664 20.4271C5.98196 20.242 5.75799 20.018 5.57295 19.7634C5 18.9748 5 17.8498 5 15.6V10ZM17 7V5.8C17 5.05005 17 4.67508 16.809 4.41221C16.7473 4.32732 16.6727 4.25266 16.5878 4.19098C16.3249 4 15.9499 4 15.2 4H13.7071C13.6228 4 13.5806 4 13.54 3.9978C13.1988 3.97928 12.8741 3.84478 12.6197 3.61658C12.5894 3.58942 12.5596 3.55961 12.5 3.5V3.5C12.4404 3.44039 12.4106 3.41058 12.3803 3.38342C12.1259 3.15522 11.8012 3.02072 11.46 3.0022C11.4194 3 11.3772 3 11.2929 3H8.8C8.05005 3 7.67508 3 7.41221 3.19098C7.32732 3.25266 7.25266 3.32732 7.19098 3.41221C7 3.67508 7 4.05005 7 4.8V7H17ZM4.5 10H19.5C19.9659 10 20.1989 10 20.3827 9.92388C20.6277 9.82239 20.8224 9.62771 20.9239 9.38268C21 9.19891 21 8.96594 21 8.5V8.5C21 8.03406 21 7.80109 20.9239 7.61732C20.8224 7.37229 20.6277 7.17761 20.3827 7.07612C20.1989 7 19.9659 7 19.5 7H4.5C4.03406 7 3.80109 7 3.61732 7.07612C3.37229 7.17761 3.17761 7.37229 3.07612 7.61732C3 7.80109 3 8.03406 3 8.5V8.5C3 8.96594 3 9.19891 3.07612 9.38268C3.17761 9.62771 3.37229 9.82239 3.61732 9.92388C3.80109 10 4.03406 10 4.5 10Z" stroke="white" stroke-width="1.5" stroke-linecap="round" stroke-linejoin="round"/>
</svg>
