<svg width="16" height="16" viewBox="0 0 16 16" fill="none" xmlns="http://www.w3.org/2000/svg">
<g opacity="0.5">
<path d="M6 3.33333V3.33333C5.07003 3.33333 4.60504 3.33333 4.22354 3.43556C3.18827 3.71296 2.37962 4.5216 2.10222 5.55688C2 5.93838 2 6.40336 2 7.33334V8.66667C2 10.8528 2 11.9459 2.54254 12.7207C2.74327 13.0074 2.9926 13.2567 3.27927 13.4575C4.0541 14 5.14718 14 7.33333 14H8.66667C10.8528 14 11.9459 14 12.7207 13.4575C13.0074 13.2567 13.2567 13.0074 13.4575 12.7207C14 11.9459 14 10.8528 14 8.66667V7.33333C14 6.40336 14 5.93838 13.8978 5.55688C13.6204 4.5216 12.8117 3.71296 11.7765 3.43556C11.395 3.33333 10.93 3.33333 10 3.33333V3.33333M6 3.33333V4.33333M6 3.33333V2M6 3.33333H10M10 3.33333V2M10 3.33333V4.33333" stroke="white" stroke-width="1.5" stroke-linecap="round" stroke-linejoin="round"/>
<path d="M4.66675 6.66667C4.66675 6.29848 4.96522 6 5.33341 6C5.7016 6 6.00008 6.29848 6.00008 6.66667C6.00008 7.03486 5.7016 7.33333 5.33341 7.33333C4.96522 7.33333 4.66675 7.03486 4.66675 6.66667Z" fill="white"/>
<path d="M4.66675 9C4.66675 8.63181 4.96522 8.33333 5.33341 8.33333C5.7016 8.33333 6.00008 8.63181 6.00008 9C6.00008 9.36819 5.7016 9.66667 5.33341 9.66667C4.96522 9.66667 4.66675 9.36819 4.66675 9Z" fill="white"/>
<path d="M4.66675 11.3333C4.66675 10.9651 4.96522 10.6667 5.33341 10.6667C5.7016 10.6667 6.00008 10.9651 6.00008 11.3333C6.00008 11.7015 5.7016 12 5.33341 12C4.96522 12 4.66675 11.7015 4.66675 11.3333Z" fill="white"/>
<path d="M7.33341 6.66667C7.33341 6.29848 7.63189 6 8.00008 6C8.36827 6 8.66675 6.29848 8.66675 6.66667C8.66675 7.03486 8.36827 7.33333 8.00008 7.33333C7.63189 7.33333 7.33341 7.03486 7.33341 6.66667Z" fill="white"/>
<path d="M7.33341 9C7.33341 8.63181 7.63189 8.33333 8.00008 8.33333C8.36827 8.33333 8.66675 8.63181 8.66675 9C8.66675 9.36819 8.36827 9.66667 8.00008 9.66667C7.63189 9.66667 7.33341 9.36819 7.33341 9Z" fill="white"/>
<path d="M7.33341 11.3333C7.33341 10.9651 7.63189 10.6667 8.00008 10.6667C8.36827 10.6667 8.66675 10.9651 8.66675 11.3333C8.66675 11.7015 8.36827 12 8.00008 12C7.63189 12 7.33341 11.7015 7.33341 11.3333Z" fill="white"/>
<path d="M10.0001 6.66667C10.0001 6.29848 10.2986 6 10.6667 6C11.0349 6 11.3334 6.29848 11.3334 6.66667C11.3334 7.03486 11.0349 7.33333 10.6667 7.33333C10.2986 7.33333 10.0001 7.03486 10.0001 6.66667Z" fill="white"/>
<path d="M10.0001 9C10.0001 8.63181 10.2986 8.33333 10.6667 8.33333C11.0349 8.33333 11.3334 8.63181 11.3334 9C11.3334 9.36819 11.0349 9.66667 10.6667 9.66667C10.2986 9.66667 10.0001 9.36819 10.0001 9Z" fill="white"/>
<path d="M10.0001 11.3333C10.0001 10.9651 10.2986 10.6667 10.6667 10.6667C11.0349 10.6667 11.3334 10.9651 11.3334 11.3333C11.3334 11.7015 11.0349 12 10.6667 12C10.2986 12 10.0001 11.7015 10.0001 11.3333Z" fill="white"/>
</g>
</svg>
