<svg width="24" height="24" viewBox="0 0 24 24" fill="none" xmlns="http://www.w3.org/2000/svg">
<mask id="path-1-inside-1_93_1572" fill="white">
<path d="M18.75 12C18.75 12.4142 18.4142 12.75 18 12.75C17.5858 12.75 17.25 12.4142 17.25 12C17.25 11.5858 17.5858 11.25 18 11.25C18.4142 11.25 18.75 11.5858 18.75 12Z"/>
</mask>
<path d="M18.75 12C18.75 12.4142 18.4142 12.75 18 12.75C17.5858 12.75 17.25 12.4142 17.25 12C17.25 11.5858 17.5858 11.25 18 11.25C18.4142 11.25 18.75 11.5858 18.75 12Z" fill="white"/>
<path d="M18.75 12H17.25C17.25 11.5858 17.5858 11.25 18 11.25V12.75V14.25C19.2426 14.25 20.25 13.2426 20.25 12H18.75ZM18 12.75V11.25C18.4142 11.25 18.75 11.5858 18.75 12H17.25H15.75C15.75 13.2426 16.7574 14.25 18 14.25V12.75ZM17.25 12H18.75C18.75 12.4142 18.4142 12.75 18 12.75V11.25V9.75C16.7574 9.75 15.75 10.7574 15.75 12H17.25ZM18 11.25V12.75C17.5858 12.75 17.25 12.4142 17.25 12H18.75H20.25C20.25 10.7574 19.2426 9.75 18 9.75V11.25Z" fill="white" mask="url(#path-1-inside-1_93_1572)"/>
<path d="M3.02 9H20.98M13.5 12H15.5M10.2 20H13.8C16.7998 20 18.2997 20 19.3511 19.2361C19.6907 18.9893 19.9893 18.6907 20.2361 18.3511C21 17.2997 21 15.7998 21 12.8V11.2C21 8.20021 21 6.70032 20.2361 5.64886C19.9893 5.30928 19.6907 5.01065 19.3511 4.76393C18.2997 4 16.7998 4 13.8 4H10.2C7.20021 4 5.70032 4 4.64886 4.76393C4.30928 5.01065 4.01065 5.30928 3.76393 5.64886C3 6.70032 3 8.20021 3 11.2V12.8C3 15.7998 3 17.2997 3.76393 18.3511C4.01065 18.6907 4.30928 18.9893 4.64886 19.2361C5.70032 20 7.20021 20 10.2 20Z" stroke="white" stroke-width="1.5" stroke-linecap="round" stroke-linejoin="round"/>
</svg>
