<svg width="24" height="24" viewBox="0 0 24 24" fill="none" xmlns="http://www.w3.org/2000/svg">
<g clip-path="url(#clip0_27_953)">
<path d="M20.25 16.5V24M16.5 20.25H24M6.5 11.5H9C9.66304 11.5 10.2989 11.2366 10.7678 10.7678C11.2366 10.2989 11.5 9.66304 11.5 9V6.5C11.5 5.83696 11.2366 5.20107 10.7678 4.73223C10.2989 4.26339 9.66304 4 9 4H6.5C5.83696 4 5.20107 4.26339 4.73223 4.73223C4.26339 5.20107 4 5.83696 4 6.5V9C4 9.66304 4.26339 10.2989 4.73223 10.7678C5.20107 11.2366 5.83696 11.5 6.5 11.5ZM19 11.5H21.5C22.163 11.5 22.7989 11.2366 23.2678 10.7678C23.7366 10.2989 24 9.66304 24 9V6.5C24 5.83696 23.7366 5.20107 23.2678 4.73223C22.7989 4.26339 22.163 4 21.5 4H19C18.337 4 17.7011 4.26339 17.2322 4.73223C16.7634 5.20107 16.5 5.83696 16.5 6.5V9C16.5 9.66304 16.7634 10.2989 17.2322 10.7678C17.7011 11.2366 18.337 11.5 19 11.5ZM6.5 24H9C9.66304 24 10.2989 23.7366 10.7678 23.2678C11.2366 22.7989 11.5 22.163 11.5 21.5V19C11.5 18.337 11.2366 17.7011 10.7678 17.2322C10.2989 16.7634 9.66304 16.5 9 16.5H6.5C5.83696 16.5 5.20107 16.7634 4.73223 17.2322C4.26339 17.7011 4 18.337 4 19V21.5C4 22.163 4.26339 22.7989 4.73223 23.2678C5.20107 23.7366 5.83696 24 6.5 24Z" stroke="#6D6562" stroke-width="2" stroke-linecap="round" stroke-linejoin="round"/>
</g>
<defs>
<clipPath id="clip0_27_953">
<rect width="24" height="24" fill="white"/>
</clipPath>
</defs>
</svg>
