<svg width="30" height="30" viewBox="0 0 30 30" fill="none" xmlns="http://www.w3.org/2000/svg">
<path d="M10 13.75V8.75C10 7.42392 10.5268 6.15215 11.4645 5.21447C12.4021 4.27678 13.6739 3.75 15 3.75C16.3261 3.75 17.5979 4.27678 18.5355 5.21447C19.4732 6.15215 20 7.42392 20 8.75M15 18.75V21.25M7.5 26.25H22.5C23.163 26.25 23.7989 25.9866 24.2678 25.5178C24.7366 25.0489 25 24.413 25 23.75V16.25C25 15.587 24.7366 14.9511 24.2678 14.4822C23.7989 14.0134 23.163 13.75 22.5 13.75H7.5C6.83696 13.75 6.20107 14.0134 5.73223 14.4822C5.26339 14.9511 5 15.587 5 16.25V23.75C5 24.413 5.26339 25.0489 5.73223 25.5178C6.20107 25.9866 6.83696 26.25 7.5 26.25Z" stroke="black" stroke-width="2" stroke-linecap="round" stroke-linejoin="round"/>
</svg>
