<svg width="30" height="30" viewBox="0 0 30 30" fill="none" xmlns="http://www.w3.org/2000/svg">
<path d="M3.00452 8.826L15 14.823L26.9955 8.826C26.9511 8.06167 26.6162 7.34323 26.0592 6.81784C25.5023 6.29245 24.7656 5.99986 24 6H6.00002C5.23439 5.99986 4.49769 6.29245 3.94078 6.81784C3.38388 7.34323 3.04892 8.06167 3.00452 8.826Z" fill="black"/>
<path d="M27 12.177L15 18.177L3 12.177V21C3 21.7957 3.31607 22.5587 3.87868 23.1213C4.44129 23.6839 5.20435 24 6 24H24C24.7956 24 25.5587 23.6839 26.1213 23.1213C26.6839 22.5587 27 21.7957 27 21V12.177Z" fill="black"/>
</svg>
